<?xml version="1.0" encoding="UTF-8"?>
<svg xmlns="http://www.w3.org/2000/svg" viewBox="0 0 1600 1200">
  <defs>
    <filter id="dropShadow" x="-20%" y="-20%" width="140%" height="140%">
      <feGaussianBlur in="SourceAlpha" stdDeviation="3"/>
      <feOffset dx="2" dy="2" result="offsetblur"/>
      <feComponentTransfer>
        <feFuncA type="linear" slope="0.3"/>
      </feComponentTransfer>
      <feMerge>
        <feMergeNode/>
        <feMergeNode in="SourceGraphic"/>
      </feMerge>
    </filter>
    <marker id="arrowhead" markerWidth="10" markerHeight="7" refX="9" refY="3.5" orient="auto">
      <polygon points="0 0, 10 3.5, 0 7" fill="#333333"/>
    </marker>
    <marker id="arrowhead-green" markerWidth="10" markerHeight="7" refX="9" refY="3.5" orient="auto">
      <polygon points="0 0, 10 3.5, 0 7" fill="#4CAF50"/>
    </marker>
    <marker id="arrowhead-red" markerWidth="10" markerHeight="7" refX="9" refY="3.5" orient="auto">
      <polygon points="0 0, 10 3.5, 0 7" fill="#F44336"/>
    </marker>
  </defs>
  <rect width="1600" height="1200" fill="#FFFFFF"/>
  <text x="800" y="60" text-anchor="middle" font-family="Arial, Helvetica, sans-serif" font-size="36" font-weight="bold" fill="#333333">Agentic RAG — Adaptive Retrieval Loop</text>
  <g transform="translate(800, 600)" opacity="0.15">
    <circle cx="0" cy="0" r="120" fill="none" stroke="#666666" stroke-width="3"/>
    <path d="M -60 -80 A 100 100 0 0 1 60 -80" fill="none" stroke="#666666" stroke-width="4" marker-end="url(#arrowhead)"/>
    <path d="M 60 80 A 100 100 0 0 1 -60 80" fill="none" stroke="#666666" stroke-width="4"/>
    <text x="0" y="10" text-anchor="middle" font-family="Arial, Helvetica, sans-serif" font-size="28" font-weight="bold" fill="#666666">Adaptive Loop</text>
  </g>
  <path d="M 800 180 Q 1050 180 1120 300" fill="none" stroke="#333333" stroke-width="3" marker-end="url(#arrowhead)"/>
  <path d="M 1120 420 Q 1120 550 1000 650" fill="none" stroke="#333333" stroke-width="3" marker-end="url(#arrowhead)"/>
  <path d="M 800 650 Q 600 650 480 550" fill="none" stroke="#333333" stroke-width="3" marker-end="url(#arrowhead)"/>
  <path d="M 480 430 Q 480 300 600 300" fill="none" stroke="#333333" stroke-width="3" marker-end="url(#arrowhead)"/>
  <path d="M 600 300 Q 700 200 760 180" fill="none" stroke="#333333" stroke-width="3" marker-end="url(#arrowhead)"/>
  <path d="M 620 260 Q 600 150 900 280" fill="none" stroke="#F44336" stroke-width="2.5" stroke-dasharray="8,5" marker-end="url(#arrowhead-red)"/>
  <path d="M 480 360 L 1300 360" fill="none" stroke="#4CAF50" stroke-width="3" marker-end="url(#arrowhead-green)"/>
  <rect x="680" y="100" width="240" height="80" rx="4" ry="4" fill="#E1BEE7" stroke="#BA68C8" stroke-width="2" filter="url(#dropShadow)"/>
  <text x="800" y="148" text-anchor="middle" font-family="Arial, Helvetica, sans-serif" font-size="18" font-weight="bold" fill="#333333">User Query</text>
  <rect x="1000" y="300" width="240" height="120" rx="20" ry="20" fill="#BBDEFB" stroke="#64B5F6" stroke-width="2" filter="url(#dropShadow)"/>
  <text x="1120" y="348" text-anchor="middle" font-family="Arial, Helvetica, sans-serif" font-size="16" font-weight="bold" fill="#333333">Retriever Router</text>
  <text x="1120" y="378" text-anchor="middle" font-family="Arial, Helvetica, sans-serif" font-size="14" fill="#555555">(LLM decides tool)</text>
  <rect x="680" y="590" width="240" height="120" rx="20" ry="20" fill="#C8E6C9" stroke="#81C784" stroke-width="2" filter="url(#dropShadow)"/>
  <text x="800" y="638" text-anchor="middle" font-family="Arial, Helvetica, sans-serif" font-size="16" font-weight="bold" fill="#333333">Tool Execution</text>
  <text x="800" y="668" text-anchor="middle" font-family="Arial, Helvetica, sans-serif" font-size="14" fill="#555555">(Vector / BM25 / Cypher)</text>
  <g transform="translate(715, 680)">
    <ellipse cx="20" cy="8" rx="18" ry="6" fill="#4CAF50" stroke="#2E7D32" stroke-width="1.5"/>
    <path d="M 2 8 L 2 22 C 2 25.8 10 29 20 29 C 30 29 38 25.8 38 22 L 38 8" fill="#4CAF50" stroke="#2E7D32" stroke-width="1.5"/>
    <ellipse cx="20" cy="8" rx="18" ry="6" fill="none" stroke="#2E7D32" stroke-width="1.5"/>
    <ellipse cx="20" cy="15" rx="18" ry="6" fill="none" stroke="#2E7D32" stroke-width="1"/>
  </g>
  <g transform="translate(770, 680)">
    <circle cx="18" cy="18" r="14" fill="#4CAF50" stroke="#2E7D32" stroke-width="1.5"/>
    <line x1="28" y1="28" x2="38" y2="38" stroke="#2E7D32" stroke-width="3" stroke-linecap="round"/>
    <text x="18" y="24" text-anchor="middle" font-family="Arial, Helvetica, sans-serif" font-size="14" font-weight="bold" fill="#2E7D32">Aa</text>
  </g>
  <g transform="translate(825, 680)">
    <circle cx="12" cy="8" r="6" fill="#4CAF50" stroke="#2E7D32" stroke-width="1.5"/>
    <circle cx="35" cy="8" r="6" fill="#4CAF50" stroke="#2E7D32" stroke-width="1.5"/>
    <circle cx="23" cy="30" r="6" fill="#4CAF50" stroke="#2E7D32" stroke-width="1.5"/>
    <line x1="12" y1="8" x2="35" y2="8" stroke="#2E7D32" stroke-width="2"/>
    <line x1="12" y1="8" x2="23" y2="30" stroke="#2E7D32" stroke-width="2"/>
    <line x1="35" y1="8" x2="23" y2="30" stroke="#2E7D32" stroke-width="2"/>
  </g>
  <rect x="360" y="430" width="240" height="120" rx="20" ry="20" fill="#FFF9C4" stroke="#FFF176" stroke-width="2" filter="url(#dropShadow)"/>
  <text x="480" y="478" text-anchor="middle" font-family="Arial, Helvetica, sans-serif" font-size="16" font-weight="bold" fill="#333333">LLM Generator</text>
  <text x="480" y="508" text-anchor="middle" font-family="Arial, Helvetica, sans-serif" font-size="14" fill="#555555">(Draft answer)</text>
  <rect x="360" y="240" width="240" height="120" rx="20" ry="20" fill="#FFE0B2" stroke="#FFB74D" stroke-width="2" filter="url(#dropShadow)"/>
  <text x="480" y="288" text-anchor="middle" font-family="Arial, Helvetica, sans-serif" font-size="16" font-weight="bold" fill="#333333">Answer Critic</text>
  <text x="480" y="318" text-anchor="middle" font-family="Arial, Helvetica, sans-serif" font-size="14" fill="#555555">(Quality check)</text>
  <rect x="1320" y="300" width="200" height="120" rx="10" ry="10" fill="#C8E6C9" stroke="#4CAF50" stroke-width="3" filter="url(#dropShadow)"/>
  <text x="1420" y="365" text-anchor="middle" font-family="Arial, Helvetica, sans-serif" font-size="18" font-weight="bold" fill="#333333">Final Answer</text>
  <text x="720" y="170" text-anchor="middle" font-family="Arial, Helvetica, sans-serif" font-size="13" fill="#F44336" font-weight="bold">❌ Insufficient — retry</text>
  <text x="890" y="350" text-anchor="middle" font-family="Arial, Helvetica, sans-serif" font-size="13" fill="#4CAF50" font-weight="bold">✅ Sufficient — return answer</text>
  <text x="680" y="200" text-anchor="middle" font-family="Arial, Helvetica, sans-serif" font-size="12" fill="#666666" font-style="italic">Max iterations: N</text>
</svg>